<?xml version="1.0" standalone="no"?>
<!DOCTYPE svg PUBLIC "-//W3C//DTD SVG 20010904//EN"
 "http://www.w3.org/TR/2001/REC-SVG-20010904/DTD/svg10.dtd">
<svg version="1.0" xmlns="http://www.w3.org/2000/svg"
 width="300.000000pt" height="245.000000pt" viewBox="0 0 300.000000 245.000000"
 preserveAspectRatio="xMidYMid meet">
<metadata>
Created by potrace 1.10, written by Peter Selinger 2001-2011
</metadata>
<g transform="translate(0.000000,245.000000) scale(0.100000,-0.100000)"
fill="#000000" stroke="none">
<path d="M790 2413 c-40 -33 -75 -87 -91 -142 -10 -35 -15 -40 -33 -35 -35 11
-72 32 -167 94 -134 88 -193 97 -285 44 -56 -32 -142 -128 -170 -189 -60 -135
-28 -306 69 -365 38 -23 103 -26 150 -6 58 24 128 126 105 153 -14 18 -28 6
-28 -23 0 -14 -15 -40 -33 -61 -30 -32 -40 -36 -81 -36 -96 0 -179 96 -180
211 -1 106 78 228 180 278 77 37 115 30 286 -56 77 -38 148 -70 159 -70 11 0
18 -4 15 -9 -10 -15 -35 -254 -41 -396 -4 -77 -13 -171 -22 -210 -19 -88 -77
-214 -148 -320 -30 -46 -55 -88 -55 -94 0 -42 160 59 253 159 82 89 224 294
367 530 158 261 187 298 288 378 94 74 125 119 102 147 -20 24 -38 18 -92 -32
-70 -66 -164 -202 -303 -438 -202 -343 -333 -528 -446 -629 -49 -44 -109 -83
-109 -71 0 2 15 28 34 57 53 84 104 191 138 291 28 84 32 109 40 283 4 105 14
224 21 264 l12 73 52 17 c74 24 102 46 125 97 46 105 -29 176 -112 106z m98
-31 c9 -64 -49 -133 -125 -148 l-32 -6 11 38 c15 57 45 110 70 129 32 22 72
16 76 -13z"/>
<path d="M2735 2140 c-3 -5 -49 -137 -101 -292 -111 -331 -150 -426 -215 -528
-59 -93 -89 -123 -121 -118 -44 6 -32 100 29 225 21 42 24 55 14 67 -20 24
-37 8 -54 -52 -26 -93 -114 -216 -162 -224 -34 -5 -28 39 19 152 38 91 42 107
30 120 -20 21 -35 0 -62 -86 -19 -60 -31 -79 -72 -118 -50 -47 -85 -66 -121
-66 -35 0 -32 28 10 111 50 98 53 142 9 147 -22 3 -39 -8 -81 -47 -56 -53 -74
-64 -57 -33 5 9 64 129 130 266 125 260 173 337 242 386 55 40 99 40 140 -1
29 -28 30 -34 25 -84 -3 -30 -2 -57 3 -60 15 -9 60 55 60 86 0 44 -36 106 -71
125 -47 24 -100 10 -172 -45 -85 -64 -132 -138 -304 -476 -134 -264 -151 -294
-194 -328 -66 -52 -151 -84 -184 -69 -69 32 -58 205 14 230 45 16 71 -11 71
-73 0 -25 3 -45 8 -45 4 0 17 24 30 52 21 48 21 52 6 70 -22 23 -85 41 -119
32 -64 -16 -128 -149 -105 -219 15 -46 63 -85 103 -85 36 0 107 30 152 64 54
41 60 41 37 4 -26 -42 -27 -54 -5 -62 22 -9 35 7 68 87 22 52 42 81 84 119 55
50 96 76 106 66 3 -3 -9 -35 -26 -72 -56 -119 -48 -176 25 -176 33 0 126 51
126 70 0 5 4 10 9 10 5 0 7 -9 4 -19 -6 -23 29 -61 55 -61 20 0 61 26 79 49
43 58 44 59 37 19 -5 -31 -2 -41 20 -62 14 -15 36 -26 49 -26 25 0 78 50 121
115 31 47 34 35 6 -30 -23 -53 -26 -89 -8 -83 7 3 21 32 31 66 l18 62 42 0
c35 0 49 -6 72 -30 27 -28 29 -37 36 -137 8 -126 14 -155 43 -206 26 -49 61
-67 126 -67 60 0 96 17 137 63 91 103 77 239 -27 281 -32 13 -45 13 -67 4
l-28 -12 30 -3 c63 -7 73 -13 94 -56 34 -70 25 -135 -26 -189 -53 -55 -126
-59 -184 -11 -47 40 -61 78 -69 190 -9 116 -26 158 -79 185 l-33 16 30 16 c45
23 82 73 82 110 0 60 -33 71 -88 29 -20 -15 -32 -20 -27 -12 5 8 29 45 53 83
67 104 180 344 203 432 20 78 19 125 -2 151 -13 15 -45 17 -54 3z m31 -117
c-8 -39 -28 -104 -44 -144 -40 -100 -133 -291 -138 -286 -3 2 15 58 39 123 24
66 63 178 87 249 49 150 49 150 62 137 5 -5 3 -36 -6 -79z m-156 -568 c0 -41
-25 -78 -68 -103 -55 -31 -66 -29 -46 9 18 36 92 119 105 119 5 0 9 -11 9 -25z"/>
<path d="M1071 1631 c-17 -31 -14 -61 7 -61 25 0 55 34 50 57 -5 26 -44 29
-57 4z"/>
<path d="M985 1485 c-26 -16 -55 -25 -83 -25 -31 0 -42 -4 -39 -12 2 -8 19
-13 41 -12 20 1 36 0 36 -1 0 -1 -14 -29 -31 -63 -35 -72 -41 -132 -15 -160
42 -47 92 -34 179 47 28 25 48 38 44 29 -17 -48 -18 -85 -2 -102 21 -21 47
-14 98 25 20 17 37 27 37 24 0 -3 -45 -86 -101 -183 -232 -406 -328 -509 -427
-458 -52 27 -62 66 -37 144 10 31 -10 28 -46 -7 -44 -44 -41 -92 9 -142 44
-43 76 -54 129 -44 104 19 352 364 558 775 41 82 75 152 75 155 0 3 -13 5 -30
5 -21 0 -30 -5 -30 -16 0 -58 -154 -264 -197 -264 -27 0 -9 76 40 170 24 47
42 91 40 98 -10 27 -34 9 -60 -45 -31 -65 -138 -178 -193 -205 -45 -22 -70 -9
-70 35 1 42 29 104 85 184 60 85 59 90 -10 48z"/>
<path d="M1487 863 c-45 -50 -49 -270 -8 -392 l22 -64 -22 -23 c-13 -14 -45
-35 -73 -48 l-51 -24 -47 53 c-51 56 -126 109 -171 120 -36 9 -57 -9 -57 -48
0 -59 133 -157 213 -157 34 0 37 -2 47 -41 6 -23 18 -75 26 -116 8 -41 17 -79
20 -84 3 -6 23 6 45 26 36 32 44 35 100 35 55 0 64 -3 90 -31 16 -17 32 -28
37 -25 5 3 11 50 14 103 5 113 17 143 55 143 67 0 203 102 203 152 0 29 -28
58 -57 58 -40 0 -149 -101 -192 -177 -7 -13 -13 -13 -52 5 -24 10 -57 33 -73
50 -28 30 -28 32 -13 65 65 136 60 342 -9 418 -21 23 -27 24 -47 2z m52 -78
c20 -78 9 -298 -17 -339 -12 -21 -25 47 -29 165 -7 154 2 245 22 229 7 -6 18
-30 24 -55z m357 -329 c3 -8 -2 -26 -11 -39 -20 -32 -110 -93 -149 -102 -27
-6 -28 -5 -15 12 60 77 95 114 122 127 40 19 46 20 53 2z m-700 -35 c70 -47
126 -111 97 -111 -59 0 -193 101 -180 134 9 23 18 20 83 -23z m415 -110 c44
-19 50 -25 44 -44 -3 -12 -9 -55 -12 -94 -3 -40 -7 -73 -8 -73 -1 0 -17 7 -35
16 -39 20 -128 14 -167 -11 -13 -9 -26 -15 -27 -13 -1 2 -8 37 -14 78 -7 41
-15 85 -18 97 -5 19 1 25 38 43 25 11 58 34 74 51 l28 29 23 -28 c12 -16 45
-39 74 -51z"/>
</g>
</svg>
